<svg width="28" height="28" viewBox="0 0 28 28" fill="none" xmlns="http://www.w3.org/2000/svg">
<path d="M14 2.3335C11.7518 2.33355 9.55158 2.98316 7.66391 4.20418C5.77623 5.42519 4.28154 7.1656 3.35965 9.21604C2.43775 11.2665 2.12792 13.5396 2.46742 15.762C2.80692 17.9844 3.7813 20.0613 5.27333 21.743C5.38236 21.8656 5.51603 21.9639 5.66561 22.0315C5.81519 22.099 5.97733 22.1342 6.14144 22.1349C16.1002 22.175 11.63 22.1664 21.83 22.1633C21.994 22.1634 22.1563 22.1289 22.3061 22.0619C22.4559 21.995 22.5899 21.8972 22.6992 21.7748C24.1999 20.0958 25.1826 18.0185 25.5287 15.7934C25.8748 13.5683 25.5696 11.2905 24.6498 9.23506C23.7301 7.1796 22.2351 5.43423 20.3454 4.20958C18.4556 2.98494 16.2519 2.33337 14 2.3335ZM19.3559 11.4412L17.3166 12.9345C17.4333 13.2779 17.4952 13.6375 17.5 14.0002C17.5032 14.7828 17.2451 15.5442 16.7666 16.1636C16.2881 16.7829 15.6165 17.2248 14.8583 17.4192C14.1001 17.6136 13.2988 17.5493 12.5813 17.2366C11.8638 16.9239 11.2712 16.3807 10.8974 15.693C10.5237 15.0053 10.3902 14.2125 10.5181 13.4404C10.646 12.6682 11.028 11.9608 11.6035 11.4304C12.1791 10.8999 12.9152 10.5768 13.6952 10.5122C14.4752 10.4475 15.2545 10.6451 15.9095 11.0736L17.9774 9.55901C18.2273 9.38224 18.5366 9.31075 18.8387 9.35997C19.1409 9.40918 19.4115 9.57515 19.5924 9.82209C19.7732 10.069 19.8498 10.3772 19.8056 10.68C19.7614 10.9829 19.5999 11.2563 19.3559 11.4412Z" fill="#A5A5A5"/>
<path d="M14 15.1668C14.6443 15.1668 15.1667 14.6445 15.1667 14.0002C15.1667 13.3558 14.6443 12.8335 14 12.8335C13.3556 12.8335 12.8333 13.3558 12.8333 14.0002C12.8333 14.6445 13.3556 15.1668 14 15.1668Z" fill="#A5A5A5"/>
</svg>
