<svg width="28" height="28" viewBox="0 0 28 28" fill="none" xmlns="http://www.w3.org/2000/svg">
<g clip-path="url(#clip0_49_544)">
<path d="M21 10.9376C21.0001 9.94724 20.8548 8.96227 20.5686 8.01418C20.1624 6.66556 19.4775 5.41725 18.5584 4.35001C17.6393 3.28276 16.5063 2.42037 15.2329 1.81861C13.9594 1.21685 12.5738 0.889141 11.1657 0.856677C9.7576 0.824214 8.35837 1.08772 7.05853 1.63015C5.75869 2.17258 4.5872 2.98185 3.61986 4.0056C2.65252 5.02935 1.91088 6.24478 1.44291 7.57324C0.974947 8.90171 0.791084 10.3136 0.903219 11.7176C1.01535 13.1216 1.42099 14.4865 2.09388 15.7238L0.908258 19.8853C0.871159 20.0155 0.864785 20.1526 0.889639 20.2857C0.914492 20.4188 0.969894 20.5443 1.05149 20.6523C1.13308 20.7604 1.23863 20.848 1.35984 20.9084C1.48105 20.9687 1.61461 21.0001 1.75001 21.0001C1.83106 20.9999 1.91172 20.9887 1.98976 20.9668L6.15213 19.7803C6.7427 20.1039 7.36561 20.3647 8.01063 20.5582C8.95856 20.8515 9.94524 21.0005 10.9375 21.0001C13.6053 20.997 16.163 19.9359 18.0494 18.0495C19.9359 16.1631 20.997 13.6054 21 10.9376Z" fill="#A5A5A5"/>
<path d="M27.0918 26.0102L25.9062 21.8487C27.1171 19.6199 27.4401 17.0156 26.8104 14.5586C26.1807 12.1015 24.6448 9.97359 22.5111 8.60205C22.8617 10.3169 22.826 12.0883 22.4065 13.7876C21.9871 15.4868 21.1944 17.0714 20.0862 18.4261C18.9779 19.7809 17.5819 20.8718 15.9994 21.6197C14.417 22.3676 12.6878 22.7537 10.9375 22.7499C10.1576 22.7475 9.37995 22.6669 8.61615 22.5093C9.53101 23.9186 10.7819 25.0783 12.2563 25.884C13.7307 26.6897 15.3824 27.1161 17.0625 27.1249C18.7348 27.1252 20.3803 26.7061 21.8488 25.9061L26.0103 27.0917C26.0883 27.1136 26.169 27.1247 26.25 27.1249C26.3854 27.125 26.519 27.0936 26.6402 27.0332C26.7614 26.9729 26.867 26.8853 26.9485 26.7772C27.0301 26.6692 27.0855 26.5436 27.1104 26.4105C27.1352 26.2774 27.1289 26.1404 27.0918 26.0102Z" fill="#A5A5A5"/>
</g>
<defs>
<clipPath id="clip0_49_544">
<rect width="28" height="28" fill="white"/>
</clipPath>
</defs>
</svg>
