<svg width="28" height="28" viewBox="0 0 28 28" fill="none" xmlns="http://www.w3.org/2000/svg">
<path d="M25.4706 19.1863L23.3333 15.9803V11.6668C23.3333 9.19148 22.3499 6.81751 20.5996 5.06717C18.8493 3.31683 16.4753 2.3335 13.9999 2.3335C11.5246 2.3335 9.1506 3.31683 7.40026 5.06717C5.64992 6.81751 4.66659 9.19148 4.66659 11.6668V15.9803L2.52926 19.1863C2.4125 19.3621 2.34556 19.5662 2.33554 19.777C2.32553 19.9878 2.37282 20.1974 2.47239 20.3834C2.57195 20.5695 2.72007 20.7251 2.901 20.8337C3.08193 20.9423 3.28891 20.9998 3.49993 21.0002H24.4999C24.7109 20.9998 24.9179 20.9423 25.0989 20.8337C25.2798 20.7251 25.4279 20.5695 25.5275 20.3834C25.627 20.1974 25.6743 19.9878 25.6643 19.777C25.6543 19.5662 25.5874 19.3621 25.4706 19.1863Z" fill="#A5A5A5"/>
<path d="M14.0001 25.6665C15.0345 25.6674 16.0398 25.3239 16.8573 24.6902C17.6749 24.0564 18.2581 23.1685 18.5151 22.1665H9.48511C9.74208 23.1685 10.3253 24.0564 11.1429 24.6902C11.9604 25.3239 12.9657 25.6674 14.0001 25.6665Z" fill="#A5A5A5"/>
</svg>
