<svg width="28" height="28" viewBox="0 0 28 28" fill="none" xmlns="http://www.w3.org/2000/svg">
<path d="M9.33331 2.3335H5.83331C3.90032 2.3335 2.33331 3.9005 2.33331 5.8335V9.3335C2.33331 11.2665 3.90032 12.8335 5.83331 12.8335H9.33331C11.2663 12.8335 12.8333 11.2665 12.8333 9.3335V5.8335C12.8333 3.9005 11.2663 2.3335 9.33331 2.3335Z" fill="#A5A5A5"/>
<path d="M22.1666 2.3335H18.6666C16.7336 2.3335 15.1666 3.9005 15.1666 5.8335V9.3335C15.1666 11.2665 16.7336 12.8335 18.6666 12.8335H22.1666C24.0996 12.8335 25.6666 11.2665 25.6666 9.3335V5.8335C25.6666 3.9005 24.0996 2.3335 22.1666 2.3335Z" fill="#A5A5A5"/>
<path d="M9.33331 15.167H5.83331C3.90032 15.167 2.33331 16.734 2.33331 18.667V22.167C2.33331 24.1 3.90032 25.667 5.83331 25.667H9.33331C11.2663 25.667 12.8333 24.1 12.8333 22.167V18.667C12.8333 16.734 11.2663 15.167 9.33331 15.167Z" fill="#A5A5A5"/>
<path d="M22.1666 15.167H18.6666C16.7336 15.167 15.1666 16.734 15.1666 18.667V22.167C15.1666 24.1 16.7336 25.667 18.6666 25.667H22.1666C24.0996 25.667 25.6666 24.1 25.6666 22.167V18.667C25.6666 16.734 24.0996 15.167 22.1666 15.167Z" fill="#A5A5A5"/>
</svg>
