<svg width="28" height="28" viewBox="0 0 28 28" fill="none" xmlns="http://www.w3.org/2000/svg">
<path d="M2.33325 23.3332C2.33602 24.2606 2.70566 25.1492 3.36144 25.805C4.01722 26.4608 4.90585 26.8304 5.83325 26.8332H12.8333V15.1665H2.33325V23.3332Z" fill="#A5A5A5"/>
<path d="M15.1667 26.8332H22.1667C23.0942 26.8304 23.9828 26.4608 24.6386 25.805C25.2943 25.1492 25.664 24.2606 25.6667 23.3332V15.1665H15.1667V26.8332Z" fill="#A5A5A5"/>
<path d="M23.3334 5.83317H19.6234C19.7647 5.46054 19.8359 5.06501 19.8334 4.6665C19.8306 3.7391 19.461 2.85047 18.8052 2.19469C18.1494 1.53891 17.2608 1.16927 16.3334 1.1665C15.4695 1.16876 14.6374 1.49325 14.0001 2.0765C13.3627 1.49325 12.5307 1.16876 11.6667 1.1665C10.7393 1.16927 9.85071 1.53891 9.19493 2.19469C8.53915 2.85047 8.16951 3.7391 8.16674 4.6665C8.16426 5.06501 8.23546 5.46054 8.37674 5.83317H4.66675C3.73934 5.83594 2.85071 6.20558 2.19493 6.86136C1.53916 7.51714 1.16952 8.40577 1.16675 9.33317V11.6665C1.16675 11.9759 1.28966 12.2727 1.50846 12.4915C1.72725 12.7103 2.02399 12.8332 2.33341 12.8332H12.8334V5.83317H11.6667C11.436 5.83317 11.2104 5.76475 11.0186 5.63655C10.8267 5.50836 10.6772 5.32615 10.5889 5.11297C10.5006 4.89979 10.4775 4.66521 10.5225 4.4389C10.5675 4.21259 10.6786 4.00471 10.8418 3.84155C11.0049 3.67838 11.2128 3.56727 11.4391 3.52225C11.6654 3.47724 11.9 3.50034 12.1132 3.58864C12.3264 3.67695 12.5086 3.82648 12.6368 4.01834C12.765 4.2102 12.8334 4.43576 12.8334 4.6665V5.83317H15.1667V4.6665C15.1667 4.43576 15.2352 4.2102 15.3634 4.01834C15.4916 3.82648 15.6738 3.67695 15.8869 3.58864C16.1001 3.50034 16.3347 3.47724 16.561 3.52225C16.7873 3.56727 16.9952 3.67838 17.1584 3.84155C17.3215 4.00471 17.4326 4.21259 17.4777 4.4389C17.5227 4.66521 17.4996 4.89979 17.4113 5.11297C17.323 5.32615 17.1734 5.50836 16.9816 5.63655C16.7897 5.76475 16.5642 5.83317 16.3334 5.83317H15.1667V12.8332H25.6667C25.9762 12.8332 26.2729 12.7103 26.4917 12.4915C26.7105 12.2727 26.8334 11.9759 26.8334 11.6665V9.33317C26.8306 8.40577 26.461 7.51714 25.8052 6.86136C25.1494 6.20558 24.2608 5.83594 23.3334 5.83317Z" fill="#A5A5A5"/>
</svg>
