<svg width="24" height="14" viewBox="0 0 24 14" fill="none" xmlns="http://www.w3.org/2000/svg">
<path d="M16.4935 1.34528C16.0279 0.874505 15.2693 0.868566 14.7964 1.33205L5.92643 10.0986L2.07056 6.10682C1.61067 5.6275 0.849313 5.61176 0.370044 6.07165C-0.109276 6.53154 -0.125009 7.2929 0.334881 7.77217C0.336964 7.77431 0.338996 7.77644 0.34108 7.77858L5.0425 12.6508C5.26749 12.8803 5.57501 13.0103 5.89643 13.0116H5.90966C6.22499 13.0106 6.52734 12.8858 6.75156 12.664L16.4826 3.04231C16.9528 2.57606 16.9576 1.81752 16.4935 1.34528Z" fill="#34A8D9"/>
<path d="M12.2588 12.6504C12.4833 12.8793 12.7898 13.0092 13.1104 13.0112H13.1236C13.4389 13.0102 13.7413 12.8853 13.9655 12.6636L23.6966 3.0419C24.1377 2.54523 24.0926 1.78507 23.596 1.34399C23.1458 0.944111 22.4692 0.93885 22.0128 1.33164L13.1464 10.0982L12.8301 9.76984C12.3703 9.29052 11.6089 9.27474 11.1296 9.73463C10.6503 10.1945 10.6345 10.9558 11.0944 11.4351C11.0965 11.4373 11.0985 11.4395 11.1006 11.4416L12.2588 12.6504Z" fill="#34A8D9"/>
</svg>
