<svg width="28" height="28" viewBox="0 0 28 28" fill="none" xmlns="http://www.w3.org/2000/svg">
<path d="M22.1667 7.21623V5.8335C22.1656 4.90555 21.7966 4.01591 21.1404 3.35975C20.4843 2.70359 19.5946 2.33452 18.6667 2.3335H7C6.08275 2.33302 5.20225 2.694 4.5493 3.33821C3.89635 3.98243 3.52354 4.85799 3.51167 5.77516C3.51085 5.79535 3.5 5.81273 3.5 5.8335V22.1668C3.50271 23.0943 3.87233 23.9829 4.52812 24.6387C5.18391 25.2945 6.07258 25.6641 7 25.6668H21C21.9274 25.6641 22.8161 25.2945 23.4719 24.6387C24.1277 23.9829 24.4973 23.0943 24.5 22.1668V10.5002C24.4965 9.77916 24.2704 9.07683 23.8528 8.48908C23.4352 7.90133 22.8464 7.45681 22.1667 7.21623ZM18.6667 21.0002C18.6657 21.3093 18.5425 21.6055 18.3239 21.8241C18.1053 22.0427 17.8091 22.1659 17.5 22.1668H10.5C10.1909 22.1659 9.89465 22.0427 9.67606 21.8241C9.45747 21.6055 9.33426 21.3093 9.33333 21.0002C9.18985 20.0894 9.28901 19.1568 9.62083 18.2966C9.95264 17.4363 10.5054 16.6787 11.2233 16.1002C10.7582 15.4986 10.504 14.7606 10.5 14.0002C10.5 13.0719 10.8687 12.1817 11.5251 11.5253C12.1815 10.8689 13.0717 10.5002 14 10.5002C14.9283 10.5002 15.8185 10.8689 16.4749 11.5253C17.1313 12.1817 17.5 13.0719 17.5 14.0002C17.496 14.7606 17.2418 15.4986 16.7767 16.1002C17.4942 16.6791 18.0466 17.4367 18.3784 18.2968C18.7102 19.157 18.8096 20.0894 18.6667 21.0002ZM19.8333 7.00016H7.14187C6.985 7.01622 6.82651 7.00039 6.67591 6.95364C6.52532 6.90688 6.38573 6.83017 6.26554 6.7281C6.14535 6.62603 6.04703 6.50071 5.9765 6.35968C5.90597 6.21865 5.86468 6.06481 5.85511 5.90742C5.84554 5.75002 5.86789 5.59232 5.92081 5.44378C5.97374 5.29525 6.05615 5.15894 6.16309 5.04306C6.27003 4.92718 6.3993 4.83412 6.54312 4.76946C6.68694 4.70481 6.84234 4.6699 7 4.66683H18.6667C18.976 4.66714 19.2726 4.79015 19.4913 5.00888C19.71 5.22761 19.833 5.52417 19.8333 5.8335V7.00016Z" fill="#A5A5A5"/>
</svg>
