<svg width="28" height="28" viewBox="0 0 28 28" fill="none" xmlns="http://www.w3.org/2000/svg">
<path d="M23.3334 9.33317V16.3332C23.3314 18.1891 22.5932 19.9684 21.2809 21.2807C19.9686 22.593 18.1893 23.3311 16.3334 23.3332H9.33341C9.024 23.3332 8.72725 23.4561 8.50846 23.6749C8.28966 23.8937 8.16675 24.1904 8.16675 24.4998C8.16675 24.8093 8.28966 25.106 8.50846 25.3248C8.72725 25.5436 9.024 25.6665 9.33341 25.6665H16.3334C18.8079 25.6637 21.1802 24.6794 22.9299 22.9297C24.6797 21.18 25.6639 18.8077 25.6667 16.3332V9.33317C25.6667 9.02375 25.5438 8.72701 25.325 8.50821C25.1062 8.28942 24.8095 8.1665 24.5001 8.1665C24.1907 8.1665 23.8939 8.28942 23.6751 8.50821C23.4563 8.72701 23.3334 9.02375 23.3334 9.33317Z" fill="#A5A5A5"/>
<path d="M16.3333 22.1668C17.8798 22.165 19.3625 21.5498 20.456 20.4563C21.5496 19.3627 22.1648 17.88 22.1666 16.3335V8.16683C22.1648 6.62029 21.5496 5.13762 20.456 4.04405C19.3625 2.95048 17.8798 2.33532 16.3333 2.3335H8.16659C6.62005 2.33532 5.13738 2.95048 4.04381 4.04405C2.95024 5.13762 2.33507 6.62029 2.33325 8.16683V16.3335C2.33507 17.88 2.95024 19.3627 4.04381 20.4563C5.13738 21.5498 6.62005 22.165 8.16659 22.1668H16.3333ZM9.11159 10.9833L10.6029 13.0455L15.5407 8.47681C15.768 8.26666 16.0694 8.15538 16.3787 8.16745C16.688 8.17953 16.9798 8.31398 17.1899 8.54121C17.4001 8.76845 17.5114 9.06987 17.4993 9.37915C17.4872 9.68844 17.3528 9.98026 17.1255 10.1904L11.2217 15.6522C11.1006 15.7642 10.957 15.8493 10.8005 15.9017C10.6441 15.9542 10.4782 15.9728 10.314 15.9565C10.1498 15.9401 9.99094 15.8891 9.8479 15.8068C9.70486 15.7245 9.5809 15.6128 9.48422 15.479L7.22159 12.3504C7.04939 12.0994 6.98212 11.791 7.03411 11.4911C7.0861 11.1912 7.25324 10.9235 7.49987 10.7451C7.74649 10.5667 8.05307 10.4918 8.35419 10.5363C8.6553 10.5808 8.9271 10.7412 9.11159 10.9833Z" fill="#A5A5A5"/>
</svg>
