<svg width="28" height="28" viewBox="0 0 28 28" fill="none" xmlns="http://www.w3.org/2000/svg">
<path d="M22.1666 1.1665H5.83329C5.55373 1.16972 5.28462 1.27323 5.07496 1.45817C5.90695 1.75089 6.63896 2.27339 7.18615 2.96512C7.73334 3.65684 8.07329 4.48947 8.16663 5.3665C8.18446 5.52155 8.18446 5.67813 8.16663 5.83317V25.6665C8.16607 25.8897 8.22953 26.1083 8.34946 26.2964C8.4694 26.4846 8.64078 26.6345 8.84329 26.7282C9.04628 26.8216 9.27183 26.8548 9.49313 26.8238C9.71443 26.7928 9.92216 26.6988 10.0916 26.5532L13.4166 23.7065L16.7416 26.5532C16.9529 26.7339 17.2219 26.8332 17.5 26.8332C17.778 26.8332 18.047 26.7339 18.2583 26.5532L21.5833 23.7065L24.9083 26.5532C25.1196 26.7339 25.3886 26.8332 25.6666 26.8332C25.8354 26.832 26.0022 26.7962 26.1566 26.7282C26.3591 26.6345 26.5305 26.4846 26.6505 26.2964C26.7704 26.1083 26.8338 25.8897 26.8333 25.6665V5.83317C26.8333 4.59549 26.3416 3.40851 25.4665 2.53334C24.5913 1.65817 23.4043 1.1665 22.1666 1.1665ZM21 17.4998H14C13.6905 17.4998 13.3938 17.3769 13.175 17.1581C12.9562 16.9393 12.8333 16.6426 12.8333 16.3332C12.8333 16.0238 12.9562 15.727 13.175 15.5082C13.3938 15.2894 13.6905 15.1665 14 15.1665H21C21.3094 15.1665 21.6061 15.2894 21.8249 15.5082C22.0437 15.727 22.1666 16.0238 22.1666 16.3332C22.1666 16.6426 22.0437 16.9393 21.8249 17.1581C21.6061 17.3769 21.3094 17.4998 21 17.4998ZM21 12.8332H14C13.6905 12.8332 13.3938 12.7103 13.175 12.4915C12.9562 12.2727 12.8333 11.9759 12.8333 11.6665C12.8333 11.3571 12.9562 11.0603 13.175 10.8415C13.3938 10.6228 13.6905 10.4998 14 10.4998H21C21.3094 10.4998 21.6061 10.6228 21.8249 10.8415C22.0437 11.0603 22.1666 11.3571 22.1666 11.6665C22.1666 11.9759 22.0437 12.2727 21.8249 12.4915C21.6061 12.7103 21.3094 12.8332 21 12.8332ZM21 8.1665H14C13.6905 8.1665 13.3938 8.04359 13.175 7.8248C12.9562 7.606 12.8333 7.30926 12.8333 6.99984C12.8333 6.69042 12.9562 6.39367 13.175 6.17488C13.3938 5.95609 13.6905 5.83317 14 5.83317H21C21.3094 5.83317 21.6061 5.95609 21.8249 6.17488C22.0437 6.39367 22.1666 6.69042 22.1666 6.99984C22.1666 7.30926 22.0437 7.606 21.8249 7.8248C21.6061 8.04359 21.3094 8.1665 21 8.1665ZM5.83329 5.83317V15.1665H2.33329C2.02387 15.1665 1.72713 15.0436 1.50833 14.8248C1.28954 14.606 1.16663 14.3093 1.16663 13.9998V5.83317C1.16663 5.66984 1.16663 5.51817 1.16663 5.3665C1.22851 4.74767 1.53369 4.17876 2.01504 3.78493C2.49638 3.3911 3.11445 3.20462 3.73329 3.2665C4.35213 3.32839 4.92104 3.63357 5.31487 4.11491C5.70869 4.59626 5.89518 5.21433 5.83329 5.83317Z" fill="#A5A5A5"/>
</svg>
