<svg width="28" height="28" viewBox="0 0 28 28" fill="none" xmlns="http://www.w3.org/2000/svg">
<g clip-path="url(#clip0_49_924)">
<path d="M15.7544 24.4959C8.99144 24.4959 3.50889 19.0134 3.50889 12.2504C3.50889 5.48732 8.99138 0.00488281 15.7544 0.00488281C22.5175 0.00488281 28 5.48738 28 12.2504C28 19.0135 22.5175 24.4959 15.7544 24.4959ZM15.7544 3.50363C10.9237 3.50363 7.00763 7.41969 7.00763 12.2504C7.00763 17.0812 10.9237 20.9973 15.7544 20.9973C20.5852 20.9973 24.5013 17.0812 24.5013 12.2504C24.5013 7.41969 20.5851 3.50363 15.7544 3.50363Z" fill="#6418C3"/>
<path d="M1.75951 27.9947C1.29451 27.9974 0.847592 27.8148 0.51747 27.4874C-0.168521 26.807 -0.173043 25.6994 0.50734 25.0134C0.510717 25.01 0.514093 25.0067 0.51747 25.0033L7.09507 18.4257C7.80518 17.7397 8.93694 17.7593 9.62293 18.4694C10.3089 19.1795 10.2893 20.3113 9.57922 20.9973L3.00156 27.4874C2.67143 27.8148 2.22452 27.9974 1.75951 27.9947Z" fill="#6418C3"/>
</g>
<defs>
<clipPath id="clip0_49_924">
<rect width="28" height="28" fill="white"/>
</clipPath>
</defs>
</svg>
