<svg width="28" height="28" viewBox="0 0 28 28" fill="none" xmlns="http://www.w3.org/2000/svg">
<path d="M22.167 5.8335H21.0003V3.50016C21.0003 3.19074 20.8774 2.894 20.6586 2.6752C20.4398 2.45641 20.143 2.3335 19.8336 2.3335C19.5242 2.3335 19.2275 2.45641 19.0087 2.6752C18.7899 2.894 18.667 3.19074 18.667 3.50016V5.8335H9.33362V3.50016C9.33362 3.19074 9.2107 2.894 8.99191 2.6752C8.77312 2.45641 8.47637 2.3335 8.16695 2.3335C7.85753 2.3335 7.56079 2.45641 7.34199 2.6752C7.1232 2.894 7.00028 3.19074 7.00028 3.50016V5.8335H5.83362C4.90536 5.8335 4.01512 6.20224 3.35874 6.85862C2.70237 7.515 2.33362 8.40524 2.33362 9.3335V10.5002H25.667V9.3335C25.667 8.40524 25.2982 7.515 24.6418 6.85862C23.9854 6.20224 23.0952 5.8335 22.167 5.8335Z" fill="#A5A5A5"/>
<path d="M2.33362 22.1668C2.33362 23.0951 2.70237 23.9853 3.35874 24.6417C4.01512 25.2981 4.90536 25.6668 5.83362 25.6668H22.167C23.0952 25.6668 23.9854 25.2981 24.6418 24.6417C25.2982 23.9853 25.667 23.0951 25.667 22.1668V12.8335H2.33362V22.1668Z" fill="#A5A5A5"/>
</svg>
