<svg width="150" height="54" viewBox="0 0 150 54" fill="none" xmlns="http://www.w3.org/2000/svg">
<path d="M69.5898 37.0001V16.0001H75.3198V24.2801H78.2898C79.0498 24.2801 79.6898 24.0301 80.2098 23.5301C80.7498 23.0301 81.0198 22.3301 81.0198 21.4301V16.0001H86.7498V21.5201C86.7498 22.8001 86.4398 23.9701 85.8198 25.0301C85.2198 26.0701 84.4098 26.9101 83.3898 27.5501L85.4298 31.8701C85.6098 32.2501 85.9298 32.4401 86.3898 32.4401H88.1298V37.0001H84.9498C83.7698 37.0001 82.8198 36.7801 82.0998 36.3401C81.3798 35.9001 80.8298 35.3101 80.4498 34.5701L77.7498 28.9001H75.3198V37.0001H69.5898Z" fill="#343437"/>
<path d="M89.744 37.0001V15.1001H94.934V37.0001H89.744Z" fill="#343437"/>
<path d="M106.346 37.0001C104.606 37.0001 103.066 36.6901 101.726 36.0701C100.386 35.4501 99.3364 34.5601 98.5764 33.4001C97.8164 32.2401 97.4364 30.8701 97.4364 29.2901C97.4364 27.5501 97.8064 26.0801 98.5464 24.8801C99.2864 23.6601 100.256 22.7401 101.456 22.1201C102.676 21.5001 103.996 21.1901 105.416 21.1901C106.916 21.1901 108.226 21.5101 109.346 22.1501C110.466 22.7701 111.326 23.6501 111.926 24.7901C112.546 25.9301 112.856 27.2601 112.856 28.7801C112.856 29.1001 112.836 29.4701 112.796 29.8901C112.756 30.2901 112.706 30.6301 112.646 30.9101H102.836C102.996 31.5701 103.356 32.0601 103.916 32.3801C104.476 32.7001 105.186 32.8601 106.046 32.8601H111.146V37.0001H106.346ZM102.656 27.8801H107.936C107.916 27.1601 107.686 26.5501 107.246 26.0501C106.806 25.5501 106.176 25.3001 105.356 25.3001C104.516 25.3001 103.876 25.5601 103.436 26.0801C102.996 26.5801 102.736 27.1801 102.656 27.8801Z" fill="#343437"/>
<path d="M123.181 37.3601C121.621 37.3601 120.201 37.0201 118.921 36.3401C117.661 35.6401 116.651 34.6801 115.891 33.4601C115.131 32.2401 114.751 30.8401 114.751 29.2601C114.751 27.7001 115.131 26.3101 115.891 25.0901C116.651 23.8701 117.671 22.9201 118.951 22.2401C120.231 21.5401 121.651 21.1901 123.211 21.1901C124.771 21.1901 126.181 21.5401 127.441 22.2401C128.721 22.9201 129.731 23.8701 130.471 25.0901C131.231 26.3101 131.611 27.7001 131.611 29.2601C131.611 30.8401 131.231 32.2401 130.471 33.4601C129.731 34.6801 128.721 35.6401 127.441 36.3401C126.181 37.0201 124.761 37.3601 123.181 37.3601ZM123.181 32.7401C124.141 32.7401 124.911 32.4101 125.491 31.7501C126.091 31.0901 126.391 30.2601 126.391 29.2601C126.391 28.2601 126.091 27.4301 125.491 26.7701C124.911 26.1101 124.141 25.7801 123.181 25.7801C122.221 25.7801 121.441 26.1101 120.841 26.7701C120.261 27.4301 119.971 28.2601 119.971 29.2601C119.971 30.2601 120.261 31.0901 120.841 31.7501C121.441 32.4101 122.221 32.7401 123.181 32.7401Z" fill="#343437"/>
<path d="M134.07 37.0001V28.1201C134.07 26.8001 134.39 25.6201 135.03 24.5801C135.69 23.5201 136.61 22.6901 137.79 22.0901C138.99 21.4901 140.39 21.1901 141.99 21.1901C143.59 21.1901 144.97 21.4901 146.13 22.0901C147.29 22.6901 148.18 23.5201 148.8 24.5801C149.42 25.6201 149.73 26.8001 149.73 28.1201V37.0001H144.51V28.3601C144.51 27.6801 144.27 27.0801 143.79 26.5601C143.31 26.0401 142.68 25.7801 141.9 25.7801C141.12 25.7801 140.48 26.0401 139.98 26.5601C139.5 27.0801 139.26 27.6801 139.26 28.3601V37.0001H134.07Z" fill="#343437"/>
<rect width="54" height="54" rx="14" fill="url(#paint0_linear_694_423)"/>
<path d="M16 22C16 18.6863 18.6863 16 22 16H23.9939C24.5462 16 24.9939 16.4477 24.9939 17V32.9662C24.9939 36.2799 22.3076 38.9662 18.9939 38.9662H17C16.4477 38.9662 16 38.5185 16 37.9662V22ZM27.769 22.2528C27.769 19.7629 28.3931 18.0899 29.6413 17.2337C30.8227 16.4337 33.0461 16.0338 36.3116 16.0338H38V19.2278C38 21.7739 37.3592 23.5878 36.0775 24.6694C34.7736 25.7509 32.5279 26.2917 29.3404 26.2917H27.769V22.2528ZM27.769 28.0492H29.3404C32.4833 28.0492 34.729 28.6801 36.0775 29.942C37.3592 31.1474 38 33.0514 38 35.6539V39H36.3116C33.113 39 30.8896 38.5156 29.6413 37.5467C28.3931 36.5665 27.769 34.809 27.769 32.2741V28.0492Z" fill="white"/>
<path d="M27.769 22.2526C27.769 19.7628 28.3932 18.0898 29.6414 17.2335C30.8227 16.4336 33.0461 16.0337 36.3116 16.0337H38V19.2277C38 21.7738 37.3592 23.5877 36.0776 24.6693C34.7736 25.7508 32.5279 26.2916 29.3405 26.2916H27.769V22.2526Z" fill="#5ECFFF"/>
<defs>
<linearGradient id="paint0_linear_694_423" x1="27" y1="0" x2="45.6923" y2="64.9038" gradientUnits="userSpaceOnUse">
<stop stop-color="#6418C3"/>
<stop offset="1" stop-color="#A827E4"/>
</linearGradient>
</defs>
</svg>
